<svg width="521" height="328" viewBox="0 0 521 328" fill="none" xmlns="http://www.w3.org/2000/svg">
<path opacity="0.1" d="M521 206.254C520.99 223.867 517.153 241.267 509.756 257.256C502.359 273.244 491.577 287.439 478.154 298.861C464.731 310.283 448.986 318.66 432.007 323.415C415.028 328.169 397.218 329.187 379.807 326.4H186.672C179.213 327.422 171.692 327.935 164.163 327.935C158.757 327.935 153.417 327.677 148.142 327.163C107.555 323.227 69.8918 304.328 42.5015 274.154C15.1111 243.981 -0.0415122 204.697 8.542e-05 163.967C8.542e-05 73.4083 73.5003 0 164.163 0C237.181 0 299.053 47.6187 320.376 113.46C342.371 94.7697 370.319 84.5271 399.197 84.5727C466.458 84.5727 521 139.05 521 206.254Z" fill="#00938A"/>
</svg>
