<svg width="135" height="282" viewBox="0 0 135 282" fill="none" xmlns="http://www.w3.org/2000/svg">
<path d="M114.961 0.672501H102.653C103.219 2.0542 103.435 3.5533 103.282 5.03772C103.129 6.52215 102.612 7.94635 101.776 9.18487C100.94 10.4234 99.8109 11.4382 98.4883 12.1399C97.1657 12.8416 95.69 13.2087 94.1914 13.2088H40.1737C38.675 13.2087 37.1994 12.8416 35.8768 12.1399C34.5541 11.4382 33.4251 10.4234 32.5892 9.18486C31.7532 7.94634 31.236 6.52214 31.0831 5.03771C30.9302 3.55328 31.1462 2.05419 31.7122 0.672485H20.2166C17.6904 0.672482 15.1891 1.16789 12.8552 2.13043C10.5214 3.09296 8.40082 4.50377 6.61459 6.28231C4.82835 8.06085 3.41143 10.1723 2.44472 12.496C1.47802 14.8198 0.980472 17.3104 0.980469 19.8257V262.576C0.980469 265.091 1.47802 267.582 2.44472 269.906C3.41143 272.229 4.82835 274.341 6.61459 276.119C8.40082 277.898 10.5214 279.309 12.8552 280.271C15.1891 281.234 17.6904 281.729 20.2166 281.729H114.961C117.487 281.729 119.988 281.234 122.322 280.271C124.656 279.309 126.777 277.898 128.563 276.119C130.349 274.341 131.766 272.229 132.733 269.906C133.699 267.582 134.197 265.091 134.197 262.576V19.8257C134.197 17.3104 133.699 14.8198 132.733 12.4961C131.766 10.1723 130.349 8.06087 128.563 6.28233C126.777 4.50379 124.656 3.09298 122.322 2.13044C119.988 1.16791 117.487 0.672498 114.961 0.672501Z" fill="white"/>
</svg>
